# xmcd
#
# Track frame offsets:
#	150
#	22189
#	39450
#	60744
#	83986
#	100851
#	128697
#	151121
#	176786
#	204666
#	216986
#
# Disc length: 3345 seconds
#
# Revision: 0
# Processed by: cddbd v1.5.2PL0 Copyright (c) Steve Scherf et al.
# Submitted via: audiograbber 1.83.01
#
DISCID=970d0f0b
DTITLE=Driftin - Alle Richtungen
DYEAR=2007
DGENRE=Blues
TTITLE0=High Helled Sneakers
TTITLE1=Sweet Home Chicago
TTITLE2=Walking on Sunset
TTITLE3=Red House
TTITLE4=Bayby what you want me to do
TTITLE5=Taking Care of Business
TTITLE6=All along the Watchtower
TTITLE7=Celestial Voices
TTITLE8=Funk for Golgatha
TTITLE9=Summertime
TTITLE10=Born under a bad Sighn
EXTD=
EXTT0=
EXTT1=
EXTT2=
EXTT3=
EXTT4=
EXTT5=
EXTT6=
EXTT7=
EXTT8=
EXTT9=
EXTT10=
PLAYORDER=
